<?xml version="1.0" encoding="iso-8859-1"?>
<!-- Uploaded to: SVG Repo, www.svgrepo.com, Generator: SVG Repo Mixer Tools -->
<svg fill="#000000" height="800px" width="800px" version="1.1" id="Layer_1" xmlns="http://www.w3.org/2000/svg" xmlns:xlink="http://www.w3.org/1999/xlink" 
	 viewBox="0 0 512 512" xml:space="preserve">
<g>
	<g>
		<g>
			<path d="M341.334,0c-94.108,0-170.668,76.561-170.668,170.667c0,35.512,10.909,68.522,29.541,95.865l-19.451,19.453
				c-1.732-0.434-3.523-0.684-5.357-0.684c-5.83,0-11.305,2.263-15.411,6.37L6.371,445.286c-4.109,4.11-6.37,9.583-6.37,15.413
				c0,5.831,2.263,11.306,6.37,15.412l29.516,29.519C39.997,509.738,45.47,512,51.3,512c5.832,0,11.306-2.263,15.413-6.37
				l153.615-153.616c5.619-5.62,7.498-13.566,5.683-20.768l19.453-19.454c27.345,18.635,60.355,29.543,95.868,29.543
				c94.105,0,170.666-76.561,170.666-170.667C511.999,76.561,435.439,0,341.334,0z M205.239,336.926L51.626,490.542
				c-0.03,0.03-0.121,0.121-0.325,0.121c-0.206,0-0.298-0.092-0.328-0.121l-29.515-29.519c-0.03-0.03-0.12-0.121-0.12-0.323
				c0-0.204,0.092-0.296,0.121-0.325L175.074,306.76c0.03-0.03,0.121-0.121,0.323-0.121c0.206,0,0.298,0.092,0.326,0.121
				l5.786,5.786l23.732,23.733C205.398,336.442,205.398,336.767,205.239,336.926z M213.111,313.972l-15.083-15.082l15.081-15.082
				l15.085,15.083L213.111,313.972z M341.334,319.997c-82.341,0-149.331-66.989-149.331-149.33s66.99-149.33,149.331-149.33
				s149.329,66.989,149.329,149.33S423.674,319.997,341.334,319.997z"/>
			<path d="M341.334,42.664c-70.58,0-128.002,57.422-128.002,128.003s57.421,128.003,128.002,128.003
				c70.58,0,128.001-57.422,128.001-128.003S411.914,42.664,341.334,42.664z M341.334,277.333
				c-58.816,0-106.665-47.85-106.665-106.666c0-58.815,47.849-106.666,106.665-106.666s106.664,47.85,106.664,106.666
				C447.997,229.483,400.148,277.333,341.334,277.333z"/>
			<path d="M352.002,96c0-5.892-4.777-10.669-10.669-10.669c-20.618,0-40.531,7.461-56.074,21.007
				c-15.542,13.547-25.651,32.257-28.464,52.682c-0.804,5.837,3.275,11.221,9.112,12.025c0.494,0.068,0.984,0.101,1.469,0.101
				c5.246,0,9.819-3.871,10.557-9.214c4.34-31.506,31.595-55.264,63.4-55.264C347.225,106.669,352.002,101.893,352.002,96z"/>
			<path d="M416.757,170.292c-5.829-0.805-11.221,3.274-12.025,9.113c-4.341,31.504-31.598,55.261-63.4,55.261
				c-5.892,0-10.669,4.776-10.669,10.669c0,5.892,4.776,10.669,10.669,10.669c20.616,0,40.53-7.461,56.073-21.007
				c15.541-13.547,25.65-32.256,28.465-52.68C426.675,176.48,422.594,171.096,416.757,170.292z"/>
			<path d="M279.386,186.744c-1.504-5.697-7.341-9.097-13.04-7.589c-5.697,1.505-9.093,7.343-7.589,13.04l0.029,0.112
				c0.052,0.201,0.105,0.401,0.162,0.602c1.334,4.695,5.612,7.765,10.264,7.765c0.962,0,1.942-0.132,2.915-0.408
				c5.667-1.61,8.96-7.501,7.351-13.169L279.386,186.744z"/>
			<path d="M403.278,154.592c1.264,4.783,5.583,7.945,10.308,7.945c0.903,0,1.819-0.115,2.732-0.357
				c5.696-1.505,9.094-7.343,7.588-13.04l-0.027-0.104c-0.055-0.217-0.112-0.433-0.175-0.649c-1.631-5.662-7.549-8.945-13.211-7.315
				c-5.663,1.632-8.934,7.526-7.302,13.188L403.278,154.592z"/>
		</g>
	</g>
</g>
</svg>